<?xml version="1.0" encoding="utf-8"?>
<!-- Generator: Adobe Illustrator 24.1.1, SVG Export Plug-In . SVG Version: 6.00 Build 0)  -->
<svg version="1.1" id="line" xmlns="http://www.w3.org/2000/svg" xmlns:xlink="http://www.w3.org/1999/xlink" x="0px" y="0px"
	 viewBox="0 0 512 512" style="enable-background:new 0 0 512 512;" xml:space="preserve">
<style type="text/css">
	.st0{opacity:0.4;fill:#00A9FF;enable-background:new    ;}
</style>
<path class="st0" d="M436.4,367.1c-14.6,0-28.8,4.8-40.5,13.6l-45.1-45.1c40.2-47.4,35.8-118.1-10-160.1l23.5-30.1
	c32.6,18.7,74.2,7.3,92.7-25.2c18.7-32.6,7.3-74.2-25.2-92.7C399.1,8.7,357.6,20,339,52.6c-15,26.2-10.9,59.1,10,80.8l-23.3,30
	c-48.1-31.6-112.1-22.9-150.1,20.2L135,167c7.2-31.4-12.5-62.6-43.8-69.7s-62.6,12.5-69.7,43.8c-7.2,31.4,12.5,62.6,43.8,69.7
	c24.1,5.6,49.1-4.9,62.4-25.9l36,14.8c-33.7,54.4-17,125.8,37.5,159.6c42.8,26.5,97.7,22.5,136.1-10.1l45,45.1
	c-22.3,29.9-16.1,72.4,13.9,94.6c29.9,22.3,72.4,16.1,94.6-13.9c22.3-29.9,16.1-72.4-13.9-94.6C465.2,371.8,451,367.1,436.4,367.1
	L436.4,367.1z M262.3,338.1c-5.3,0-9.7-4.3-9.7-9.7c0-5.3,4.3-9.7,9.7-9.7c32,0,58-26,58-58c0-5.3,4.3-9.7,9.7-9.7s9.7,4.3,9.7,9.7
	C339.7,303.4,305,338.1,262.3,338.1z"/>
<g>
	<path d="M13.8,503.4c-4.6,0-8.3-3.7-8.3-8.3s3.7-8.3,8.3-8.3c27.8,0,50.3-22.6,50.3-50.3V289.7c0-20.8,16.9-37.7,37.7-37.7h43v-87
		c0-16.7,13.6-30.3,30.3-30.3s30.3,13.6,30.3,30.3v87h43c20.8,0,37.7,16.9,37.7,37.7v146.6c0,36.9-30.1,67-67,67L13.8,503.4
		L13.8,503.4z M219.1,486.7c27.8,0,50.3-22.6,50.3-50.3v-79.7H80.8v79.7c0,19.4-8.3,37.6-22.8,50.3h21.8c27.8,0,50.3-22.6,50.3-50.3
		c0-4.6,3.7-8.3,8.3-8.3s8.3,3.7,8.3,8.3c0,19.4-8.3,37.6-22.9,50.3H153c27.8,0,50.3-22.6,50.3-50.3v-29.3c0-4.6,3.7-8.3,8.3-8.3
		s8.3,3.7,8.3,8.3v29.3c0,19.4-8.3,37.6-22.9,50.3H219.1z M269.4,340.1v-50.3c0-11.6-9.4-21-21-21H101.8c-11.6,0-21,9.4-21,21v50.3
		H269.4z M188.8,252.1v-12.7h-27.3v12.7H188.8z M188.8,222.7V165c0-7.5-6.1-13.7-13.7-13.7s-13.7,6.1-13.7,13.7v57.7H188.8z
		 M302.5,472.8c-1,0-2-0.2-3-0.6c-4-1.6-6.2-6-5-10.2c4.5-13.3,4.4-23.7,4.2-36.8c-0.1-5.3-0.2-11.4,0-18.2c0-4.6,3.7-8.3,8.3-8.3
		s8.3,3.7,8.3,8.3c-0.2,6.4-0.1,12.1,0,17.6c0.2,14.3,0.4,26.7-5.1,42.8C309.1,470.7,306,472.8,302.5,472.8z M43.1,415.4
		c-4.6,0-8.3-3.7-8.3-8.3v-58.7c0-4.6,3.7-8.3,8.3-8.3s8.3,3.7,8.3,8.3v58.7C51.5,411.6,47.7,415.4,43.1,415.4z M189.8,327.4
		c-4.6,0-8.3-3.7-8.3-8.3s3.7-8.3,8.3-8.3h58.7c4.6,0,8.3,3.7,8.3,8.3s-3.7,8.3-8.3,8.3H189.8z M219.1,298.1c-4.6,0-8.3-3.7-8.3-8.3
		s3.7-8.3,8.3-8.3h29.3c4.6,0,8.3,3.7,8.3,8.3s-3.7,8.3-8.3,8.3H219.1z"/>
	<path d="M175.1,135.8c16.2,0,29.3,13.1,29.3,29.3v88h44c20.2,0,36.7,16.4,36.7,36.7v146.6c0,36.4-29.5,66-66,66H13.8
		c-4,0-7.3-3.3-7.3-7.3s3.3-7.3,7.3-7.3c28.3,0,51.3-23,51.3-51.3V289.7c0-20.2,16.4-36.7,36.7-36.7h44v-88
		C145.8,148.9,158.9,135.8,175.1,135.8 M160.5,223.7h29.3V165c0-8.1-6.6-14.7-14.7-14.7c-8.1,0-14.7,6.6-14.7,14.7L160.5,223.7
		 M160.5,253.1h29.3v-14.7h-29.3V253.1 M79.8,341.1h190.6v-51.3c0-12.1-9.8-22-22-22H101.8c-12.1,0-22,9.8-22,22V341.1 M55.2,487.7
		h24.6c28.3,0,51.3-23,51.3-51.3c0-4,3.3-7.3,7.3-7.3s7.3,3.3,7.3,7.3c0,20-9.1,38.8-24.6,51.3h32c28.3,0,51.3-23,51.3-51.3v-29.3
		c0-4,3.3-7.3,7.3-7.3s7.3,3.3,7.3,7.3v29.3c0,20-9.1,38.8-24.6,51.3H219c28.3,0,51.3-23,51.3-51.3v-80.7H79.8v80.7
		C79.8,456.3,70.8,475.2,55.2,487.7 M248.4,282.4c4,0,7.3,3.3,7.3,7.3s-3.3,7.3-7.3,7.3h-29.3c-4,0-7.3-3.3-7.3-7.3s3.3-7.3,7.3-7.3
		H248.4 M248.4,311.7c4,0,7.3,3.3,7.3,7.3s-3.3,7.3-7.3,7.3h-58.7c-4,0-7.3-3.3-7.3-7.3s3.3-7.3,7.3-7.3H248.4 M43.1,341.1
		c4,0,7.3,3.3,7.3,7.3v58.7c0,4-3.3,7.3-7.3,7.3s-7.3-3.3-7.3-7.3v-58.7C35.8,344.3,39.1,341.1,43.1,341.1 M307.1,399.7
		c4,0,7.3,3.3,7.3,7.3l0,0c-0.8,22.8,2.5,37.9-5.1,60.1c-1.1,2.9-3.9,4.7-6.8,4.7c-0.9,0-1.8-0.2-2.6-0.5c-3.6-1.4-5.5-5.3-4.4-9
		c6.5-18.9,3.5-31.5,4.3-55.3C299.8,403,303.1,399.7,307.1,399.7 M175.1,133.8c-17.3,0-31.3,14.1-31.3,31.3v86h-42
		c-21.3,0-38.7,17.3-38.7,38.7v146.6c0,27.2-22.1,49.3-49.3,49.3c-5.1,0-9.3,4.2-9.3,9.3c0,5.1,4.2,9.3,9.3,9.3h205.3
		c37.5,0,68-30.5,68-68V289.7c0-21.3-17.3-38.7-38.7-38.7h-42v-86C206.4,147.8,192.4,133.8,175.1,133.8L175.1,133.8z M162.5,221.7
		V165c0-7,5.7-12.7,12.7-12.7s12.7,5.7,12.7,12.7v56.7H162.5L162.5,221.7z M162.5,240.4h25.3v10.7h-25.3V240.4L162.5,240.4z
		 M81.8,339.1v-49.3c0-11,9-20,20-20h146.6c11,0,20,9,20,20v49.3H81.8L81.8,339.1z M81.8,357.7h186.6v78.7
		c0,27.2-22.1,49.3-49.3,49.3h-19.3c13.6-12.8,21.3-30.5,21.3-49.3v-29.3c0-5.1-4.2-9.3-9.3-9.3s-9.3,4.2-9.3,9.3v29.3
		c0,27.2-22.1,49.3-49.3,49.3h-26.6c13.6-12.8,21.3-30.5,21.3-49.3c0-5.1-4.2-9.3-9.3-9.3s-9.3,4.2-9.3,9.3
		c0,27.2-22.1,49.3-49.3,49.3H60.6c13.5-12.8,21.2-30.5,21.2-49.3V357.7L81.8,357.7z M248.4,280.4h-29.3c-5.1,0-9.3,4.2-9.3,9.3
		c0,5.1,4.2,9.3,9.3,9.3h29.3c5.1,0,9.3-4.2,9.3-9.3C257.8,284.6,253.6,280.4,248.4,280.4L248.4,280.4z M248.4,309.7h-58.7
		c-5.1,0-9.3,4.2-9.3,9.3c0,5.1,4.2,9.3,9.3,9.3h58.7c5.1,0,9.3-4.2,9.3-9.3C257.8,313.9,253.6,309.7,248.4,309.7L248.4,309.7z
		 M43.1,339.1c-5.1,0-9.3,4.2-9.3,9.3v58.7c0,5.1,4.2,9.3,9.3,9.3s9.3-4.2,9.3-9.3v-58.7C52.5,343.2,48.3,339.1,43.1,339.1
		L43.1,339.1z M307.1,397.7c-5.1,0-9.3,4.2-9.3,9.3c-0.2,6.9-0.1,12.9,0,18.2c0.2,13.5,0.4,23.3-4.1,36.4l0,0l0,0
		c-1.4,4.7,1,9.7,5.6,11.4c1.1,0.4,2.2,0.6,3.4,0.6c3.8,0,7.3-2.4,8.7-6l0,0l0,0c5.6-16.3,5.4-28.7,5.1-43.2
		c-0.1-5.5-0.2-11.2,0-17.5l0,0l0,0c0-2.5-1-4.8-2.7-6.6C311.9,398.7,309.6,397.7,307.1,397.7L307.1,397.7z"/>
</g>
</svg>
