<?xml version="1.0" encoding="utf-8"?>
<!-- Generator: Adobe Illustrator 24.1.1, SVG Export Plug-In . SVG Version: 6.00 Build 0)  -->
<svg version="1.1" id="line" xmlns="http://www.w3.org/2000/svg" xmlns:xlink="http://www.w3.org/1999/xlink" x="0px" y="0px"
	 viewBox="0 0 512 512" style="enable-background:new 0 0 512 512;" xml:space="preserve">
<style type="text/css">
	.st0{opacity:0.4;fill:#00A9FF;enable-background:new    ;}
</style>
<path class="st0" d="M446.8,179.2c-47.6-25.6-98.4-7.5-134.8,47c-36.2-53.7-88-72.2-134.8-47c-35.8,19.9-57.8,58-57.2,99
	c0.4,0.8-11.2,155.7,189.4,225.4c1.7,0.6,3.5,0.6,5.2,0C517.6,433,503.7,279,504,278.2C504.6,237.2,482.7,199.1,446.8,179.2
	L446.8,179.2z M464,286.2c-4.4,0-8-3.6-8-8c0.4-23.3-11.8-45-31.9-56.7c-3.9-2.1-5.4-6.9-3.3-10.8c2.1-3.9,6.9-5.4,10.8-3.3
	c25.3,14.6,40.7,41.6,40.3,70.8C472,282.6,468.4,286.2,464,286.2z"/>
<g>
	<g>
		<path d="M280,265c-71.1,0-129-57.9-129-129S208.9,7,280,7c71,0.1,128.9,58,129,129C409,207.1,351.1,265,280,265z M280,25
			c-61.2,0-111,49.8-111,111s49.8,111,111,111c61.1-0.1,110.9-49.9,111-111C391,74.8,341.2,25,280,25z"/>
		<path d="M280,8c70.7,0.1,127.9,57.3,128,128c0,70.7-57.3,128-128,128s-128-57.3-128-128S209.3,8,280,8 M280,248
			c61.8-0.1,111.9-50.2,112-112c0-61.9-50.1-112-112-112S168,74.1,168,136S218.1,248,280,248 M280,6L280,6L280,6
			c-34.7,0-67.4,13.5-91.9,38.1C163.5,68.6,150,101.3,150,136s13.5,67.4,38.1,91.9c24.6,24.6,57.2,38.1,91.9,38.1
			s67.4-13.5,91.9-38.1c24.6-24.6,38.1-57.2,38.1-91.9s-13.6-67.3-38.1-91.9C347.3,19.6,314.7,6,280,6L280,6z M280,246
			c-60.7,0-110-49.3-110-110S219.3,26,280,26s110,49.3,110,110C389.9,196.6,340.6,245.9,280,246L280,246L280,246z"/>
	</g>
	<g>
		<path d="M104,409c-53.5,0-97-43.5-97-97s43.5-97,97-97c53.4,0.1,96.9,43.6,97,97C201,365.5,157.5,409,104,409z M104,233
			c-43.6,0-79,35.4-79,79s35.4,79,79,79c43.5,0,79-35.5,79-79C183,268.4,147.6,233,104,233z"/>
		<path d="M104,216c53,0.1,95.9,43,96,96c0,53-43,96-96,96S8,365,8,312S51,216,104,216 M104,392c44.2,0,80-35.8,80-80
			s-35.8-80-80-80s-80,35.8-80,80S59.8,392,104,392 M104,214L104,214L104,214c-54,0-98,44-98,98s44,98,98,98s98-44,98-98
			c0-26.2-10.2-50.8-28.7-69.3S130.2,214,104,214L104,214z M104,390c-43,0-78-35-78-78s35-78,78-78s78,35,78,78S147,390,104,390
			L104,390L104,390z"/>
	</g>
	<g>
		<path d="M160,321c-5,0-9-4-9-9c0-25.9-21.1-47-47-47c-5,0-9-4-9-9s4-9,9-9c35.8,0,65,29.2,65,65C169,317,165,321,160,321z"/>
		<path d="M104,248c35.3,0,64,28.7,64,64c0,4.4-3.6,8-8,8s-8-3.6-8-8c0-26.5-21.5-48-48-48c-4.4,0-8-3.6-8-8S99.6,248,104,248
			 M104,246L104,246L104,246c-5.5,0-10,4.5-10,10s4.5,10,10,10c25.3,0,46,20.7,46,46c0,5.5,4.5,10,10,10s10-4.5,10-10
			C170,275.6,140.4,246,104,246L104,246z"/>
	</g>
	<g>
		<path d="M104,377c-35.8,0-65-29.2-65-65c0-5,4-9,9-9s9,4,9,9c0,25.9,21.1,47,47,47c5,0,9,4,9,9S109,377,104,377L104,377z"/>
		<path d="M48,304c4.4,0,8,3.6,8,8c0,26.5,21.5,48,48,48c4.4,0,8,3.6,8,8s-3.6,8-8,8c-35.3,0-64-28.7-64-64
			C40,307.6,43.6,304,48,304 M48,302c-5.5,0-10,4.5-10,10c0,36.4,29.6,66,66,66c5.5,0,10-4.5,10-10s-4.5-10-10-10
			c-25.3,0-46-20.7-46-46C58,306.5,53.5,302,48,302L48,302z"/>
	</g>
	<g>
		<path d="M279.1,233c-5,0-9-4-9-9v-11.1c-11.6-0.4-22.7-4.2-32.2-11.1c-4.1-2.7-5.3-8.3-2.5-12.5c1.7-2.5,4.5-4.1,7.5-4.1
			c1.8,0,3.5,0.5,4.9,1.5c6.5,4.9,14.2,7.7,22.3,8.1v-59.3c-7.2-3-14-6.9-20.3-11.6c-9.8-8.3-14-21.2-11.1-33.6
			c2.4-14.3,12.6-26,26.5-30.4c1.6-0.5,3.3-0.9,4.9-1.2V48c0-5,4-9,9-9s9,4,9,9v10c9.3,1.2,18,5,25.2,11c3.5,3.4,3.8,8.8,0.6,12.5
			c-1.7,2-4.2,3.1-6.8,3.1c-2.2,0-4.3-0.8-5.9-2.2c-3.8-3-8.3-5-13.1-6v47.1c3,1.1,6,2.2,9,3.3c20,6.2,32.2,26.4,28.2,47
			c-3.1,19.4-18.1,34.7-37.3,38.4V224C288.1,229,284,233,279.1,233z M288.1,193.5c10.2-3.4,17.8-12.2,19.5-22.8l0.1-0.8l0,0
			c1.9-11.6-5.3-22.9-16.6-26.1l-3.1-1.1v50.8L288.1,193.5L288.1,193.5z M260.9,109.8c2.9,2.2,6,4.1,9.2,5.8V77.2
			c-7.2,2.5-12.5,8.8-13.8,16.4C254.8,99.5,256.6,105.7,260.9,109.8z"/>
		<path d="M279.1,40c4.4,0,8,3.6,8,8v10.9c9.4,1.1,18.3,4.8,25.5,10.9c3.1,3,3.3,7.8,0.5,11.1c-1.6,1.8-3.8,2.7-6,2.7
			c-1.9,0-3.8-0.7-5.3-2c-4.3-3.4-9.3-5.6-14.7-6.5v49c3.2,1.2,6.5,2.4,9.7,3.6l0,0c19.5,6,31.4,25.8,27.6,45.8
			c-3.1,19.3-18.1,34.4-37.3,37.8V224c0,4.4-3.6,8-8,8s-8-3.6-8-8v-12.1c-11.7-0.2-23.1-4-32.6-10.9c-3.7-2.4-4.7-7.4-2.3-11.1
			c1.5-2.3,4.1-3.6,6.7-3.6c1.5,0,3,0.4,4.4,1.3c6.9,5.2,15.2,8.1,23.8,8.3v-61c-7.4-3-14.3-6.9-20.7-11.7
			c-9.4-8-13.5-20.6-10.8-32.6c2.4-14,12.4-25.4,25.9-29.7c1.8-0.6,3.7-1,5.6-1.4V48C271.1,43.6,274.7,40,279.1,40 M271.1,117.2V76
			c-0.3,0.1-0.6,0.1-1,0.2c-7.8,2.6-13.4,9.2-14.8,17.3c-1.6,6.2,0.3,12.7,4.9,17C263.7,113.1,267.3,115.3,271.1,117.2 M287.1,194.9
			c11.2-3.1,19.6-12.5,21.5-24l0,0c2.5-12.4-5-24.7-17.2-28.1c-1.5-0.6-2.9-1.1-4.4-1.6v53.7 M279.1,38c-5.5,0-10,4.5-10,10v9.9
			c-1.4,0.3-2.8,0.7-4.2,1.1c-14.3,4.5-24.7,16.5-27.3,31.2c-2.9,12.8,1.4,26,11.4,34.5l0,0h0.1c6.1,4.6,12.8,8.4,19.9,11.4v57.6
			c-7.5-0.6-14.6-3.2-20.6-7.8h-0.1h-0.1c-1.6-1.1-3.5-1.6-5.5-1.6c-3.4,0-6.5,1.7-8.4,4.5c-3,4.6-1.8,10.8,2.8,13.8
			c9.3,6.8,20.2,10.6,31.7,11.2V224c0,5.5,4.5,10,10,10s10-4.5,10-10v-11.1c19.2-4.1,34.1-19.6,37.3-39.1c4-21.1-8.4-41.8-28.9-48.1
			c-2.8-1-5.6-2-8.3-3V77.5c4.2,1,8.1,2.9,11.4,5.6c1.8,1.6,4.1,2.4,6.5,2.4c2.9,0,5.6-1.2,7.5-3.4c3.5-4,3.3-10.1-0.6-13.8h-0.1
			h-0.1c-7.1-5.9-15.7-9.7-24.8-11.1V48C289.1,42.5,284.6,38,279.1,38L279.1,38z M261.6,109c-4.1-3.8-5.7-9.6-4.3-15v-0.1v-0.1
			c1.1-6.8,5.6-12.4,11.8-15.1v35.2C266.5,112.4,264,110.8,261.6,109L261.6,109z M289.1,192.1V144l1.7,0.6h0.1h0.1
			c10.6,3,17.4,13.4,16,24.2l-0.3,1.6C305,180.3,298.3,188.5,289.1,192.1L289.1,192.1z"/>
	</g>
</g>
</svg>
