<svg id="OBJECTS" xmlns="http://www.w3.org/2000/svg" xmlns:xlink="http://www.w3.org/1999/xlink" viewBox="0 0 800 600"><defs><style>.cls-1{fill:none;}.cls-2{opacity:0.43;}.cls-3{fill:url(#Degradado_sin_nombre_2);}.cls-4{opacity:0.25;}.cls-5{clip-path:url(#clip-path);}.cls-6{clip-path:url(#clip-path-2);}.cls-20,.cls-7,.cls-8,.cls-9{opacity:0.74;}.cls-7{fill:url(#Degradado_sin_nombre_2-2);}.cls-8{fill:url(#Degradado_sin_nombre_2-3);}.cls-9{fill:url(#Degradado_sin_nombre_2-4);}.cls-10{opacity:0.48;fill:url(#Degradado_sin_nombre_2-5);}.cls-11{fill:url(#Degradado_sin_nombre_6);}.cls-12,.cls-18,.cls-19{opacity:0.56;}.cls-13{fill:url(#Degradado_sin_nombre_2-6);}.cls-14{opacity:0.26;}.cls-15{fill:url(#Degradado_sin_nombre_2-7);}.cls-16{fill:url(#Degradado_sin_nombre_2-8);}.cls-17{fill:url(#Degradado_sin_nombre_2-9);}.cls-18{fill:url(#Degradado_sin_nombre_2-10);}.cls-19{fill:url(#Degradado_sin_nombre_2-11);}.cls-20{fill:url(#Degradado_sin_nombre_2-12);}.cls-21{opacity:0.91;fill:url(#Degradado_sin_nombre_2-13);}</style><linearGradient id="Degradado_sin_nombre_2" x1="294.16" y1="2550.9" x2="1093.66" y2="2550.9" gradientTransform="translate(-293.91 -2250.99)" gradientUnits="userSpaceOnUse"><stop offset="0" stop-color="#59ff00"/><stop offset="1" stop-color="#447300"/></linearGradient><clipPath id="clip-path"><rect class="cls-1" x="1" y="0.08" width="798.07" height="599"/></clipPath><clipPath id="clip-path-2"><rect class="cls-1" x="-43" y="0.36" width="886" height="599.28"/></clipPath><linearGradient id="Degradado_sin_nombre_2-2" x1="2672.86" y1="648.39" x2="2169.97" y2="-222.65" gradientTransform="translate(499.52 -2257.51) rotate(90)" xlink:href="#Degradado_sin_nombre_2"/><linearGradient id="Degradado_sin_nombre_2-3" x1="2780.78" y1="578.21" x2="2072.31" y2="-130.26" gradientTransform="translate(499.52 -2257.51) rotate(90)" xlink:href="#Degradado_sin_nombre_2"/><linearGradient id="Degradado_sin_nombre_2-4" x1="2777.78" y1="512.21" x2="2069.31" y2="-196.26" gradientTransform="translate(499.52 -2257.51) rotate(90)" xlink:href="#Degradado_sin_nombre_2"/><linearGradient id="Degradado_sin_nombre_2-5" x1="2816.78" y1="389.22" x2="2108.31" y2="-319.25" gradientTransform="translate(499.52 -2257.51) rotate(90)" xlink:href="#Degradado_sin_nombre_2"/><linearGradient id="Degradado_sin_nombre_6" x1="2525.29" y1="576.83" x2="2525.29" y2="-250.31" gradientTransform="translate(499.52 -2257.51) rotate(90)" gradientUnits="userSpaceOnUse"><stop offset="0" stop-color="#59ff00"/><stop offset="0.22" stop-color="#59fc00"/><stop offset="0.39" stop-color="#57f200"/><stop offset="0.54" stop-color="#55e200"/><stop offset="0.68" stop-color="#51cb00"/><stop offset="0.81" stop-color="#4dad00"/><stop offset="0.93" stop-color="#478a00"/><stop offset="1" stop-color="#447300"/></linearGradient><linearGradient id="Degradado_sin_nombre_2-6" x1="669.42" y1="2596.42" x2="1376.5" y2="2596.42" xlink:href="#Degradado_sin_nombre_2"/><linearGradient id="Degradado_sin_nombre_2-7" x1="655.92" y1="2549.92" x2="1363" y2="2549.92" xlink:href="#Degradado_sin_nombre_2"/><linearGradient id="Degradado_sin_nombre_2-8" x1="675.66" y1="2622.78" x2="1382.74" y2="2622.78" xlink:href="#Degradado_sin_nombre_2"/><linearGradient id="Degradado_sin_nombre_2-9" x1="223.73" y1="2412.89" x2="913.36" y2="2412.89" xlink:href="#Degradado_sin_nombre_2"/><linearGradient id="Degradado_sin_nombre_2-10" x1="235.16" y1="2437.09" x2="924.79" y2="2437.09" xlink:href="#Degradado_sin_nombre_2"/><linearGradient id="Degradado_sin_nombre_2-11" x1="115.16" y1="2371.1" x2="804.79" y2="2371.1" xlink:href="#Degradado_sin_nombre_2"/><linearGradient id="Degradado_sin_nombre_2-12" x1="186.67" y1="2418.27" x2="876.3" y2="2418.27" xlink:href="#Degradado_sin_nombre_2"/><linearGradient id="Degradado_sin_nombre_2-13" x1="158.96" y1="2399.45" x2="848.59" y2="2399.45" xlink:href="#Degradado_sin_nombre_2"/></defs><g class="cls-2"><rect class="cls-3" x="0.25" y="0.08" width="799.5" height="599.67"/></g><g class="cls-4"><g class="cls-5"><g class="cls-6"><path class="cls-7" d="M771.89-1.41s-284,196.06-336.37,409.07c-70,285-547.66,311-485.15,115.53C-21.41,435,19.48-114,19.48-114Z"/><path class="cls-8" d="M813.57-1.41s-284,196.06-336.37,409.07c-70,285-547.65,311-485.15,115.53C20.27,435,61.17-114,61.17-114Z"/><path class="cls-9" d="M879.57-4.41s-284,196.06-336.37,409.07c-70,285-547.66,311-485.15,115.53C86.26,432,127.16-117,127.16-117Z"/><path class="cls-10" d="M1002.56,34.58s-284,196.06-336.37,409.07c-70,285-547.65,311-485.15,115.54C209.26,471,250.16-78,250.16-78Z"/><path class="cls-11" d="M749.83-1.41s-284,196.06-336.37,409.07c-70,285-547.66,311-485.15,115.53C-43.48,435-2.58-114-2.58-114Z"/><g class="cls-12"><path class="cls-13" d="M375.51,716.86s80.63-310.06,326.3-291.52S951.69,50.09,965.32-26h117.27V716.86Z"/></g><g class="cls-14"><path class="cls-15" d="M362,670.36s80.63-310.06,326.3-291.52S938.19,3.6,951.82-72.49h117.27V670.36Z"/></g><path class="cls-16" d="M381.75,743.21s80.62-310,326.29-291.52S957.92,76.45,971.55.36h117.28V743.21Z"/><path class="cls-17" d="M-70.18-75.07V389s152,122.2,312.1-156.39,225-244.88,377.53-324.41Z"/><path class="cls-18" d="M-58.75-50.87v464s152,122.2,312.1-156.39,225-244.88,377.52-324.41Z"/><path class="cls-19" d="M-178.75-116.87v464s152,122.19,312.1-156.4,225-244.88,377.53-324.41Z"/><path class="cls-20" d="M-107.24-69.7v464s152,122.2,312.1-156.4,225-244.87,377.53-324.4Z"/><path class="cls-21" d="M-134.95-88.52v464s152,122.2,312.1-156.4,225-244.88,377.53-324.4Z"/></g></g></g></svg>